<svg id="Objects" xmlns="http://www.w3.org/2000/svg" viewBox="0 0 208.05 85.98"><defs><style>.cls-1,.cls-2,.cls-4{fill:#eee;}.cls-1,.cls-3,.cls-4{stroke:#eee;stroke-miterlimit:10;}.cls-3{fill:none;stroke-width:2.76px;}.cls-4{stroke-linecap:round;stroke-width:1.84px;}</style></defs><title>01</title><path class="cls-1" d="M328.63,193.56a36.75,36.75,0,0,1,3.15,2.76c1.66,1.61,2.52,2.85,2.78,4.14a3.36,3.36,0,0,1-.75,2.91c-1.21,1.43-3.13,1.43-4.87.53l0,0a3.89,3.89,0,0,1,.09,3.91,16.88,16.88,0,0,0-1.44,3.9q-1-.82-1.92-1.66a13.91,13.91,0,0,1,1.32-3.36c0.9-1.83.69-3-.8-4.52q-0.79-.77-1.57-1.55L320.23,205q-0.88-.88-1.74-1.79Zm-3.06,6.12q0.84,0.84,1.69,1.66c1.79,1.72,3.67,1.94,4.74.72,1.21-1.38.56-3-1.09-4.63a12.17,12.17,0,0,0-1.67-1.41Z" transform="translate(-295.9 -152.84)"/><path class="cls-1" d="M345.56,216.49q-2.89-1.74-5.69-3.68L337,217q3.27,2.26,6.66,4.27l-0.78,1.32q-4.46-2.64-8.72-5.72l8.31-11.5q3.57,2.59,7.31,4.81L349,211.54q-2.89-1.72-5.68-3.66l-2.55,3.69q2.76,1.91,5.61,3.62Z" transform="translate(-295.9 -152.84)"/><path class="cls-1" d="M359,216.81q-2.24-1-4.44-2.13l0.71-1.39A97.63,97.63,0,0,0,366.09,218l-0.54,1.46q-2.31-.85-4.57-1.81L356,229.28l-2.18-1Z" transform="translate(-295.9 -152.84)"/><path class="cls-1" d="M372.15,220.2a30.7,30.7,0,0,1,3.84.74c2.1,0.53,3.38,1.16,4.19,2.14a3.42,3.42,0,0,1,.72,2.89,3.76,3.76,0,0,1-3.79,2.92v0.06a3.79,3.79,0,0,1,1.87,3.31,17.41,17.41,0,0,0,.6,4.08l-2.35-.46a14.38,14.38,0,0,1-.45-3.56,3.2,3.2,0,0,0-2.72-3.47l-2-.52-1.62,5.93-2.24-.63ZM372.4,227l2.15,0.56c2.25,0.56,3.92-.2,4.24-1.79,0.37-1.8-.92-2.87-3-3.42a10.52,10.52,0,0,0-2-.35Z" transform="translate(-295.9 -152.84)"/><path class="cls-1" d="M402.59,230.94c0.17,4.87-3.53,7.59-8.14,7.36-4.77-.24-7.73-3.58-7.16-7.83a7.49,7.49,0,0,1,8.12-6.79A7.15,7.15,0,0,1,402.59,230.94Zm-13-.26a5.25,5.25,0,0,0,5.06,6.13c3.65,0.17,5.68-2.55,5.65-5.76,0-2.83-1.69-5.73-5.06-5.88S389.93,227.58,389.6,230.69Z" transform="translate(-295.9 -152.84)"/><path class="cls-1" d="M409.67,223.56l2-.22,1.49,12.56q3.75-.44,7.46-1.14l0.28,1.51q-4.9.92-9.86,1.4Z" transform="translate(-295.9 -152.84)"/><path class="cls-1" d="M439.58,223.32c1.88,4.5-.67,8.37-5.12,9.78-4.6,1.46-8.54-.64-9.51-4.81a7.5,7.5,0,0,1,5.26-9.21A7.21,7.21,0,0,1,439.58,223.32Zm-12.37,4.36a5.28,5.28,0,0,0,6.93,4c3.51-1.13,4.48-4.4,3.32-7.4-1-2.64-3.62-4.76-6.86-3.71S426.42,224.65,427.2,227.68Z" transform="translate(-295.9 -152.84)"/><path class="cls-1" d="M461.79,219.06a18.33,18.33,0,0,1-4.39,3.67,10.09,10.09,0,0,1-6.87,1.65,6.33,6.33,0,0,1-4.54-3.64c-1.78-3.86-.14-8,4.44-10.71a12.74,12.74,0,0,1,3.77-1.59q0.2,0.76.39,1.53a10.75,10.75,0,0,0-3.41,1.4c-3.39,2-4.72,5.05-3.13,8.25s5.05,3.9,8.73,1.72a8.89,8.89,0,0,0,2.47-2L457,215.8q-1.5,1-3,1.85l-0.74-1.27q2.44-1.43,4.82-3Z" transform="translate(-295.9 -152.84)"/><path class="cls-1" d="M476.4,198.21c3.58,3.32,2.67,8.09-1,11.38s-8.36,3.17-10.93-.25c-2.71-3.61-1.92-7.87,1.33-10.81S473.31,195.34,476.4,198.21Zm-10,9.59a5.38,5.38,0,0,0,8.15.59,5.46,5.46,0,0,0,.22-8.34,5.66,5.66,0,0,0-8-.34C464.09,202.09,464.43,205.35,466.37,207.8Z" transform="translate(-295.9 -152.84)"/><line class="cls-2" x1="79.24" x2="132.49" y2="53.25"/><line class="cls-3" x1="87.2" y1="7.96" x2="124.97" y2="45.73"/><path class="cls-2" d="M384.85,162.54l5.66-1.38,0-.2-8-3.46-7.31-4.67,4.67,7.31,3.46,8,0.18,0.06Z" transform="translate(-295.9 -152.84)"/><polygon class="cls-2" points="125.06 44.85 131.53 43.11 132.64 44.22 126.17 45.96 127.28 47.07 133.75 45.33 134.86 46.44 128.39 48.18 129.5 49.29 135.97 47.55 137.08 48.66 130.61 50.4 131.74 51.53 130.78 52.5 129.64 51.37 127.91 57.84 126.8 56.73 128.53 50.26 127.42 49.15 125.69 55.62 124.57 54.51 126.31 48.03 125.2 46.92 123.46 53.4 122.35 52.29 124.09 45.81 125.06 44.85"/><line class="cls-2" x1="132.49" x2="79.24" y2="53.25"/><line class="cls-3" x1="124.54" y1="7.96" x2="86.77" y2="45.73"/><path class="cls-2" d="M418.68,162.54l1.38,5.66,0.2,0,3.46-8,4.67-7.31-7.31,4.67-8,3.46-0.06.18Z" transform="translate(-295.9 -152.84)"/><polygon class="cls-2" points="87.65 45.81 89.38 52.29 88.27 53.4 86.54 46.92 85.43 48.03 87.16 54.51 86.05 55.62 84.32 49.14 83.21 50.25 84.94 56.73 83.83 57.84 82.1 51.37 80.96 52.5 79.99 51.53 81.13 50.4 74.65 48.66 75.76 47.55 82.24 49.29 83.35 48.18 76.88 46.44 77.99 45.33 84.46 47.07 85.57 45.95 79.1 44.22 80.21 43.11 86.68 44.84 87.65 45.81"/><line class="cls-4" x1="49.13" y1="25.82" x2="41.22" y2="33.72"/><line class="cls-4" x1="41.22" y1="25.82" x2="49.13" y2="33.72"/><line class="cls-4" x1="59.72" y1="25.82" x2="51.81" y2="33.72"/><line class="cls-4" x1="51.81" y1="25.82" x2="59.72" y2="33.72"/><line class="cls-4" x1="70.3" y1="25.82" x2="62.4" y2="33.72"/><line class="cls-4" x1="62.4" y1="25.82" x2="70.3" y2="33.72"/><line class="cls-4" x1="149.34" y1="25.82" x2="141.43" y2="33.72"/><line class="cls-4" x1="141.43" y1="25.82" x2="149.34" y2="33.72"/><line class="cls-4" x1="159.92" y1="25.82" x2="152.02" y2="33.72"/><line class="cls-4" x1="152.02" y1="25.82" x2="159.92" y2="33.72"/><line class="cls-4" x1="170.51" y1="25.82" x2="162.6" y2="33.72"/><line class="cls-4" x1="162.6" y1="25.82" x2="170.51" y2="33.72"/><circle class="cls-1" cx="4.64" cy="33.72" r="4.14"/><circle class="cls-1" cx="203.41" cy="33.72" r="4.14"/></svg>