<?xml version="1.0" encoding="utf-8"?>
<!-- Generator: Adobe Illustrator 19.2.1, SVG Export Plug-In . SVG Version: 6.00 Build 0)  -->
<svg version="1.1" xmlns="http://www.w3.org/2000/svg" xmlns:xlink="http://www.w3.org/1999/xlink" x="0px" y="0px"
	 viewBox="0 0 208.1 86" style="enable-background:new 0 0 208.1 86;" xml:space="preserve">
<style type="text/css">
	.st0{display:none;}
	.st1{display:inline;fill:#EEEEEE;stroke:#EEEEEE;stroke-miterlimit:10;}
	.st2{display:inline;fill:none;}
	.st3{display:inline;fill:none;stroke:#EEEEEE;stroke-width:2.76;stroke-miterlimit:10;}
	.st4{display:inline;fill:#EEEEEE;}
	.st5{display:inline;fill:none;stroke:#EEEEEE;stroke-width:1.84;stroke-linecap:round;stroke-miterlimit:10;}
	.st6{fill:#E6E6E6;}
	.st7{font-family:'ArialMT';}
	.st8{font-size:11.1795px;}
	.st9{font-size:11.1448px;}
	.st10{font-size:11.1996px;}
	.st11{font-size:20.9978px;}
</style>
<g id="Objects" class="st0">
	<title>01</title>
	<path class="st1" d="M32.7,40.7c1.1,0.9,2.2,1.8,3.1,2.8c1.7,1.6,2.5,2.9,2.8,4.1c0.2,1-0.1,2.1-0.8,2.9C36.7,52,34.8,52,33,51.1
		l0,0c0.7,1.2,0.8,2.7,0.1,3.9c-0.6,1.2-1.1,2.5-1.4,3.9c-0.7-0.5-1.3-1.1-1.9-1.7c0.3-1.2,0.7-2.3,1.3-3.4c0.9-1.8,0.7-3-0.8-4.5
		c-0.5-0.5-1.1-1-1.6-1.6l-4.4,4.4c-0.6-0.6-1.2-1.2-1.7-1.8L32.7,40.7z M29.7,46.8c0.6,0.6,1.1,1.1,1.7,1.7
		c1.8,1.7,3.7,1.9,4.7,0.7c1.2-1.4,0.6-3-1.1-4.6c-0.5-0.5-1.1-1-1.7-1.4L29.7,46.8z"/>
	<path class="st1" d="M49.7,63.7c-1.9-1.2-3.8-2.4-5.7-3.7l-2.9,4.2c2.2,1.5,4.4,2.9,6.7,4.3L47,69.8c-3-1.8-5.9-3.7-8.7-5.7
		l8.3-11.5c2.4,1.7,4.8,3.3,7.3,4.8l-0.8,1.4c-1.9-1.1-3.8-2.4-5.7-3.7l-2.5,3.7c1.8,1.3,3.7,2.5,5.6,3.6L49.7,63.7z"/>
	<path class="st1" d="M63.1,64c-1.5-0.7-3-1.4-4.4-2.1l0.7-1.4c3.5,1.8,7.1,3.4,10.8,4.7l-0.5,1.5c-1.5-0.6-3.1-1.2-4.6-1.8l-5,11.6
		l-2.2-1L63.1,64z"/>
	<path class="st1" d="M76.3,67.4c1.3,0.2,2.6,0.4,3.8,0.7c2.1,0.5,3.4,1.2,4.2,2.1c0.7,0.8,0.9,1.9,0.7,2.9c-0.4,1.8-2,3-3.8,2.9
		v0.1c1.2,0.7,1.9,2,1.9,3.3c0,1.4,0.2,2.7,0.6,4.1L81.3,83c-0.3-1.2-0.4-2.4-0.5-3.6c0.2-1.7-1-3.2-2.7-3.5l-2-0.5l-1.6,5.9
		l-2.2-0.6L76.3,67.4z M76.5,74.2l2.1,0.6c2.3,0.6,3.9-0.2,4.2-1.8c0.4-1.8-0.9-2.9-3-3.4c-0.7-0.2-1.3-0.3-2-0.4L76.5,74.2z"/>
	<path class="st1" d="M106.7,78.1c0.2,4.9-3.5,7.6-8.1,7.4c-4.8-0.2-7.7-3.6-7.2-7.8c0.4-4.1,4-7.2,8.1-6.8c3.9,0,7.2,3.2,7.2,7.1
		C106.7,78,106.7,78.1,106.7,78.1z M93.7,77.8c-0.5,2.9,1.4,5.6,4.3,6.1c0.3,0,0.5,0.1,0.8,0.1c3.6,0.2,5.7-2.6,5.6-5.8
		c0-2.8-1.7-5.7-5.1-5.9S94,74.7,93.7,77.8L93.7,77.8z"/>
	<path class="st1" d="M113.8,70.7l2-0.2l1.5,12.6c2.5-0.3,5-0.7,7.5-1.1l0.3,1.5c-3.3,0.6-6.6,1.1-9.9,1.4L113.8,70.7z"/>
	<path class="st1" d="M143.7,70.5c1.9,4.5-0.7,8.4-5.1,9.8c-4.6,1.5-8.5-0.6-9.5-4.8c-1.1-4,1.3-8.1,5.3-9.2
		c3.7-1.4,7.9,0.4,9.3,4.1C143.7,70.4,143.7,70.4,143.7,70.5z M131.3,74.8c0.5,2.9,3.3,4.7,6.2,4.2c0.3,0,0.5-0.1,0.8-0.2
		c3.5-1.1,4.5-4.4,3.3-7.4c-1-2.6-3.6-4.8-6.9-3.7S130.5,71.8,131.3,74.8L131.3,74.8z"/>
	<path class="st1" d="M165.9,66.2c-1.3,1.4-2.7,2.7-4.4,3.7c-2,1.4-4.5,1.9-6.9,1.6c-2-0.4-3.7-1.8-4.5-3.6c-1.8-3.9-0.1-8,4.4-10.7
		c1.2-0.7,2.4-1.3,3.8-1.6c0.1,0.5,0.3,1,0.4,1.5c-1.2,0.3-2.4,0.7-3.4,1.4c-3.4,2-4.7,5.1-3.1,8.3s5,3.9,8.7,1.7
		c0.9-0.5,1.8-1.2,2.5-2l-2.3-3.5c-1,0.7-2,1.3-3,1.9l-0.7-1.3c1.6-1,3.2-2,4.8-3L165.9,66.2z"/>
	<path class="st1" d="M180.5,45.4c3.6,3.3,2.7,8.1-1,11.4s-8.4,3.2-10.9-0.3c-2.7-3.6-1.9-7.9,1.3-10.8S177.4,42.5,180.5,45.4z
		 M170.5,55c1.8,2.4,5.1,2.9,7.5,1.1c0.2-0.2,0.4-0.3,0.6-0.5c2.4-1.9,2.7-5.3,0.9-7.7c-0.2-0.2-0.4-0.5-0.6-0.7
		c-2.1-2.3-5.7-2.5-8-0.3c0,0,0,0,0,0C168.2,49.3,168.5,52.5,170.5,55L170.5,55z"/>
	<line class="st2" x1="79.2" y1="0" x2="132.5" y2="53.3"/>
	<line class="st3" x1="87.2" y1="8" x2="125" y2="45.7"/>
	<path class="st4" d="M89,9.7l5.7-1.4V8.1l-8-3.5L79.3,0L84,7.3l3.5,8l0.2,0.1L89,9.7z"/>
	<polygon class="st4" points="125.1,44.8 131.5,43.1 132.6,44.2 126.2,46 127.3,47.1 133.8,45.3 134.9,46.4 128.4,48.2 129.5,49.3 
		136,47.5 137.1,48.7 130.6,50.4 131.7,51.5 130.8,52.5 129.6,51.4 127.9,57.8 126.8,56.7 128.5,50.3 127.4,49.2 125.7,55.6 
		124.6,54.5 126.3,48 125.2,46.9 123.5,53.4 122.3,52.3 124.1,45.8 	"/>
	<line class="st2" x1="132.5" y1="0" x2="79.2" y2="53.3"/>
	<line class="st3" x1="124.5" y1="8" x2="86.8" y2="45.7"/>
	<path class="st4" d="M122.8,9.7l1.4,5.7h0.2l3.5-8l4.7-7.3l-7.3,4.7l-8,3.5l-0.1,0.2L122.8,9.7z"/>
	<polygon class="st4" points="87.7,45.8 89.4,52.3 88.3,53.4 86.5,46.9 85.4,48 87.2,54.5 86.1,55.6 84.3,49.1 83.2,50.3 84.9,56.7 
		83.8,57.8 82.1,51.4 81,52.5 80,51.5 81.1,50.4 74.7,48.7 75.8,47.5 82.2,49.3 83.3,48.2 76.9,46.4 78,45.3 84.5,47.1 85.6,46 
		79.1,44.2 80.2,43.1 86.7,44.8 	"/>
	<line class="st5" x1="49.1" y1="25.8" x2="41.2" y2="33.7"/>
	<line class="st5" x1="41.2" y1="25.8" x2="49.1" y2="33.7"/>
	<line class="st5" x1="59.7" y1="25.8" x2="51.8" y2="33.7"/>
	<line class="st5" x1="51.8" y1="25.8" x2="59.7" y2="33.7"/>
	<line class="st5" x1="70.3" y1="25.8" x2="62.4" y2="33.7"/>
	<line class="st5" x1="62.4" y1="25.8" x2="70.3" y2="33.7"/>
	<line class="st5" x1="149.3" y1="25.8" x2="141.4" y2="33.7"/>
	<line class="st5" x1="141.4" y1="25.8" x2="149.3" y2="33.7"/>
	<line class="st5" x1="159.9" y1="25.8" x2="152" y2="33.7"/>
	<line class="st5" x1="152" y1="25.8" x2="159.9" y2="33.7"/>
	<line class="st5" x1="170.5" y1="25.8" x2="162.6" y2="33.7"/>
	<line class="st5" x1="162.6" y1="25.8" x2="170.5" y2="33.7"/>
	<circle class="st1" cx="4.6" cy="33.7" r="4.1"/>
	<circle class="st2" cx="203.4" cy="33.7" r="4.1"/>
</g>
<g id="Layer_2">
	<polygon class="st6" points="130.2,35.1 160.6,36.3 130.2,37.5 	"/>
	<polygon class="st6" points="132,44.1 159.8,45.2 132,46.4 	"/>
	<polygon class="st6" points="132.2,38.4 178.8,40.4 132.2,42.5 	"/>
	<polygon class="st6" points="83.2,37.5 52.8,36.3 83.2,35.1 	"/>
	<polygon class="st6" points="80.6,46.4 52.7,45.2 80.6,44.1 	"/>
	<polygon class="st6" points="80.1,42.5 32.9,40.4 80.1,38.4 	"/>
	<text transform="matrix(0.8957 -0.4446 0.4446 0.8957 60.6357 24.429)" class="st6 st7 st8">T</text>
	<text transform="matrix(0.9243 -0.3817 0.3817 0.9243 65.4875 22.0097)" class="st6 st7 st8">R</text>
	<text transform="matrix(0.9473 -0.3203 0.3203 0.9473 70.9904 19.7366)" class="st6 st7 st8">A</text>
	<text transform="matrix(0.96 -0.28 0.28 0.96 77.4344 17.607)" class="st6 st7 st8">I</text>
	<text transform="matrix(0.973 -0.2307 0.2307 0.973 79.9095 16.8247)" class="st6 st7 st9">N</text>
	<text transform="matrix(0.9893 -0.1461 0.1461 0.9893 88.7587 14.8419)" class="st6 st7 st8">Y</text>
	<text transform="matrix(0.9968 -8.002496e-002 8.002496e-002 0.9968 94.2469 13.9873)" class="st6 st7 st8">O</text>
	<text transform="matrix(1 -1.221728e-003 1.221728e-003 1 101.7912 13.4068)" class="st6 st7 st8">U</text>
	<text transform="matrix(0.9982 5.989229e-002 -5.989229e-002 0.9982 108.9034 13.4081)" class="st6 st7 st10">R</text>
	<text transform="matrix(0.9919 0.1271 -0.1271 0.9919 117.1565 13.9875)" class="st6 st7 st8">B</text>
	<text transform="matrix(0.9843 0.1767 -0.1767 0.9843 123.0787 14.7405)" class="st6 st7 st8">R</text>
	<text transform="matrix(0.9727 0.2319 -0.2319 0.9727 128.9586 15.7833)" class="st6 st7 st8">A</text>
	<text transform="matrix(0.9617 0.2741 -0.2741 0.9617 135.5321 17.3899)" class="st6 st7 st8">I</text>
	<text transform="matrix(0.947 0.3213 -0.3213 0.947 138.067 18.057)" class="st6 st7 st8">N</text>
	<circle class="st6" cx="54.8" cy="22.6" r="1.5"/>
	<circle class="st6" cx="156.9" cy="20.5" r="1.5"/>
	<text transform="matrix(1 0 0 1 40.2463 78.053)" class="st6 st7 st11">P</text>
	<text transform="matrix(1 0 0 1 51.0774 78.053)" class="st6 st7 st11">r</text>
	<text transform="matrix(1 0 0 1 57.7395 78.053)" class="st6 st7 st11">emium Labels</text>
	<path class="st6" d="M106,61c-14.9,0-27.1-9.3-27.1-20.6S91.1,19.8,106,19.8s27.1,9.3,27.1,20.6S121,61,106,61z M106,23.7
		c-12.8,0-23.2,7.5-23.2,16.7S93.2,57.1,106,57.1s23.2-7.5,23.2-16.7S118.8,23.7,106,23.7L106,23.7z"/>
	<polygon class="st6" points="115,46.5 116,49.1 116.9,51.7 114.5,50.3 112.1,48.9 113.6,47.7 	"/>
	<path class="st6" d="M113.3,47.3L113.3,47.3l-1.4,1.2L100,34.4L99.7,34l-1.2-1.4l-0.7-0.8c-0.6-0.5-0.7-1.5-0.2-2.1l1.1-0.9
		c0.7-0.4,1.6-0.1,2.1,0.6l0.7,0.8l1.2,1.4l0.4,0.4l11.8,14.1L113.3,47.3z"/>
	<path class="st6" d="M96.2,51.4L96.2,51.4L96.2,51.4c2.2-0.3,4.2-1.3,5.8-2.9c1.2-1.4,1.3-3,0.4-3.8l0,0c-0.9-1.1-2.5-0.6-3.8,0.7
		C97.3,47.1,96.4,49.2,96.2,51.4z"/>
	<path class="st6" d="M101.7,43.4l1,1l0.9,0.8l1.8-2c0.3,0.1,0.7,0,0.9-0.2l0,0l2.9-3.4l7.3-8.6c0.1-0.1,0.2-0.2,0.2-0.4l0,0l0,0
		c0-0.2,0-0.3-0.1-0.4v-0.1l0,0l-0.1-0.2l-0.2-0.2c-0.3-0.3-0.8-0.4-1.1-0.1c0,0-0.1,0.1-0.1,0.1l-11.3,11.2
		c-0.2,0.2-0.2,0.4-0.2,0.6L101.7,43.4z"/>
</g>
</svg>
